<svg id="visual" viewBox="0 0 1920 1080" width="1920" height="1080" xmlns="http://www.w3.org/2000/svg" xmlns:xlink="http://www.w3.org/1999/xlink" version="1.1"><rect x="0" y="0" width="1920" height="1080" fill="#000422"></rect><defs><linearGradient id="grad1_0" x1="43.8%" y1="100%" x2="100%" y2="0%"><stop offset="14.444444444444446%" stop-color="#000548" stop-opacity="1"></stop><stop offset="85.55555555555554%" stop-color="#000548" stop-opacity="1"></stop></linearGradient></defs><defs><linearGradient id="grad1_1" x1="43.8%" y1="100%" x2="100%" y2="0%"><stop offset="14.444444444444446%" stop-color="#000548" stop-opacity="1"></stop><stop offset="85.55555555555554%" stop-color="#000641" stop-opacity="1"></stop></linearGradient></defs><defs><linearGradient id="grad1_2" x1="43.8%" y1="100%" x2="100%" y2="0%"><stop offset="14.444444444444446%" stop-color="#00063a" stop-opacity="1"></stop><stop offset="85.55555555555554%" stop-color="#000641" stop-opacity="1"></stop></linearGradient></defs><defs><linearGradient id="grad1_3" x1="43.8%" y1="100%" x2="100%" y2="0%"><stop offset="14.444444444444446%" stop-color="#00063a" stop-opacity="1"></stop><stop offset="85.55555555555554%" stop-color="#000632" stop-opacity="1"></stop></linearGradient></defs><defs><linearGradient id="grad1_4" x1="43.8%" y1="100%" x2="100%" y2="0%"><stop offset="14.444444444444446%" stop-color="#00052a" stop-opacity="1"></stop><stop offset="85.55555555555554%" stop-color="#000632" stop-opacity="1"></stop></linearGradient></defs><defs><linearGradient id="grad1_5" x1="43.8%" y1="100%" x2="100%" y2="0%"><stop offset="14.444444444444446%" stop-color="#00052a" stop-opacity="1"></stop><stop offset="85.55555555555554%" stop-color="#000422" stop-opacity="1"></stop></linearGradient></defs><defs><linearGradient id="grad2_0" x1="0%" y1="100%" x2="56.3%" y2="0%"><stop offset="14.444444444444446%" stop-color="#000548" stop-opacity="1"></stop><stop offset="85.55555555555554%" stop-color="#000548" stop-opacity="1"></stop></linearGradient></defs><defs><linearGradient id="grad2_1" x1="0%" y1="100%" x2="56.3%" y2="0%"><stop offset="14.444444444444446%" stop-color="#000641" stop-opacity="1"></stop><stop offset="85.55555555555554%" stop-color="#000548" stop-opacity="1"></stop></linearGradient></defs><defs><linearGradient id="grad2_2" x1="0%" y1="100%" x2="56.3%" y2="0%"><stop offset="14.444444444444446%" stop-color="#000641" stop-opacity="1"></stop><stop offset="85.55555555555554%" stop-color="#00063a" stop-opacity="1"></stop></linearGradient></defs><defs><linearGradient id="grad2_3" x1="0%" y1="100%" x2="56.3%" y2="0%"><stop offset="14.444444444444446%" stop-color="#000632" stop-opacity="1"></stop><stop offset="85.55555555555554%" stop-color="#00063a" stop-opacity="1"></stop></linearGradient></defs><defs><linearGradient id="grad2_4" x1="0%" y1="100%" x2="56.3%" y2="0%"><stop offset="14.444444444444446%" stop-color="#000632" stop-opacity="1"></stop><stop offset="85.55555555555554%" stop-color="#00052a" stop-opacity="1"></stop></linearGradient></defs><defs><linearGradient id="grad2_5" x1="0%" y1="100%" x2="56.3%" y2="0%"><stop offset="14.444444444444446%" stop-color="#000422" stop-opacity="1"></stop><stop offset="85.55555555555554%" stop-color="#00052a" stop-opacity="1"></stop></linearGradient></defs><g transform="translate(1920, 1080)"><path d="M-486 0C-459 -60.2 -431.9 -120.4 -397.3 -164.6C-362.6 -208.7 -320.4 -236.9 -287.8 -287.8C-255.2 -338.7 -232.3 -412.2 -186 -449C-139.6 -485.8 -69.8 -485.9 0 -486L0 0Z" fill="#000526"></path><path d="M-405 0C-382.5 -50.2 -359.9 -100.3 -331.1 -137.1C-302.2 -174 -267 -197.4 -239.8 -239.8C-212.7 -282.2 -193.6 -343.5 -155 -374.2C-116.4 -404.8 -58.2 -404.9 0 -405L0 0Z" fill="#00052e"></path><path d="M-324 0C-306 -40.1 -287.9 -80.2 -264.8 -109.7C-241.7 -139.2 -213.6 -158 -191.9 -191.9C-170.1 -225.8 -154.9 -274.8 -124 -299.3C-93.1 -323.9 -46.5 -323.9 0 -324L0 0Z" fill="#000636"></path><path d="M-243 0C-229.5 -30.1 -216 -60.2 -198.6 -82.3C-181.3 -104.4 -160.2 -118.5 -143.9 -143.9C-127.6 -169.3 -116.2 -206.1 -93 -224.5C-69.8 -242.9 -34.9 -243 0 -243L0 0Z" fill="#00063d"></path><path d="M-162 0C-153 -20.1 -144 -40.1 -132.4 -54.9C-120.9 -69.6 -106.8 -79 -95.9 -95.9C-85.1 -112.9 -77.4 -137.4 -62 -149.7C-46.5 -161.9 -23.3 -162 0 -162L0 0Z" fill="#000645"></path><path d="M-81 0C-76.5 -10 -72 -20.1 -66.2 -27.4C-60.4 -34.8 -53.4 -39.5 -48 -48C-42.5 -56.4 -38.7 -68.7 -31 -74.8C-23.3 -81 -11.6 -81 0 -81L0 0Z" fill="#000548"></path></g><g transform="translate(0, 0)"><path d="M486 0C468.3 64.6 450.6 129.2 413 171.1C375.4 213 317.9 232.2 281.4 281.4C244.9 330.7 229.4 409.9 186 449C142.6 488.1 71.3 487.1 0 486L0 0Z" fill="#000526"></path><path d="M405 0C390.2 53.8 375.5 107.6 344.1 142.5C312.8 177.5 264.9 193.5 234.5 234.5C204.1 275.6 191.2 341.6 155 374.2C118.8 406.8 59.4 405.9 0 405L0 0Z" fill="#00052e"></path><path d="M324 0C312.2 43.1 300.4 86.1 275.3 114C250.3 142 212 154.8 187.6 187.6C163.3 220.4 152.9 273.3 124 299.3C95 325.4 47.5 324.7 0 324L0 0Z" fill="#000636"></path><path d="M243 0C234.1 32.3 225.3 64.6 206.5 85.5C187.7 106.5 159 116.1 140.7 140.7C122.5 165.3 114.7 205 93 224.5C71.3 244.1 35.6 243.5 0 243L0 0Z" fill="#00063d"></path><path d="M162 0C156.1 21.5 150.2 43.1 137.7 57C125.1 71 106 77.4 93.8 93.8C81.6 110.2 76.5 136.6 62 149.7C47.5 162.7 23.8 162.4 0 162L0 0Z" fill="#000645"></path><path d="M81 0C78 10.8 75.1 21.5 68.8 28.5C62.6 35.5 53 38.7 46.9 46.9C40.8 55.1 38.2 68.3 31 74.8C23.8 81.4 11.9 81.2 0 81L0 0Z" fill="#000548"></path></g></svg>